<mxfile host="app.diagrams.net" modified="2023-05-10T02:24:55.598Z" agent="Mozilla/5.0 (X11; Linux x86_64; rv:109.0) Gecko/20100101 Firefox/113.0" etag="VOz1_6Or5me54aKdeDmK" version="21.2.9" type="device" pages="5">
  <diagram name="funcion_sigmoide" id="I9maAZcABpCzzvROnrPy">
    <mxGraphModel dx="874" dy="472" grid="1" gridSize="10" guides="1" tooltips="1" connect="1" arrows="1" fold="1" page="1" pageScale="1" pageWidth="850" pageHeight="1100" math="0" shadow="0">
      <root>
        <mxCell id="0" />
        <mxCell id="1" parent="0" />
        <mxCell id="bxDsJJ8R3hEj0y4kt2On-1" value="" style="endArrow=classic;startArrow=classic;html=1;rounded=0;" parent="1" edge="1">
          <mxGeometry width="50" height="50" relative="1" as="geometry">
            <mxPoint x="400" y="360" as="sourcePoint" />
            <mxPoint x="400" y="40" as="targetPoint" />
          </mxGeometry>
        </mxCell>
        <mxCell id="bxDsJJ8R3hEj0y4kt2On-2" value="" style="endArrow=classic;startArrow=classic;html=1;rounded=0;" parent="1" edge="1">
          <mxGeometry width="50" height="50" relative="1" as="geometry">
            <mxPoint x="160" y="200" as="sourcePoint" />
            <mxPoint x="640" y="200" as="targetPoint" />
          </mxGeometry>
        </mxCell>
        <mxCell id="bxDsJJ8R3hEj0y4kt2On-3" value="" style="curved=1;endArrow=classic;html=1;rounded=0;" parent="1" edge="1">
          <mxGeometry width="50" height="50" relative="1" as="geometry">
            <mxPoint x="170" y="200" as="sourcePoint" />
            <mxPoint x="640" y="80" as="targetPoint" />
            <Array as="points">
              <mxPoint x="290" y="200" />
              <mxPoint x="450" y="110" />
              <mxPoint x="530" y="80" />
            </Array>
          </mxGeometry>
        </mxCell>
        <mxCell id="bxDsJJ8R3hEj0y4kt2On-4" value="1" style="text;html=1;strokeColor=none;fillColor=none;align=center;verticalAlign=middle;whiteSpace=wrap;rounded=0;" parent="1" vertex="1">
          <mxGeometry x="360" y="60" width="60" height="30" as="geometry" />
        </mxCell>
        <mxCell id="bxDsJJ8R3hEj0y4kt2On-5" value="0" style="text;html=1;strokeColor=none;fillColor=none;align=center;verticalAlign=middle;whiteSpace=wrap;rounded=0;" parent="1" vertex="1">
          <mxGeometry x="360" y="180" width="60" height="30" as="geometry" />
        </mxCell>
        <mxCell id="dggtFJxK_po57tkOYwS1-1" value="z" style="text;html=1;strokeColor=none;fillColor=none;align=center;verticalAlign=middle;whiteSpace=wrap;rounded=0;" parent="1" vertex="1">
          <mxGeometry x="630" y="210" width="60" height="30" as="geometry" />
        </mxCell>
        <mxCell id="dggtFJxK_po57tkOYwS1-2" value="Ïƒ(z)" style="text;html=1;strokeColor=none;fillColor=none;align=center;verticalAlign=middle;whiteSpace=wrap;rounded=0;" parent="1" vertex="1">
          <mxGeometry x="395" y="30" width="60" height="30" as="geometry" />
        </mxCell>
      </root>
    </mxGraphModel>
  </diagram>
  <diagram id="Aeu3CB19ByanWOOIOy5X" name="ROC">
    <mxGraphModel dx="874" dy="472" grid="1" gridSize="10" guides="1" tooltips="1" connect="1" arrows="1" fold="1" page="1" pageScale="1" pageWidth="850" pageHeight="1100" math="0" shadow="0">
      <root>
        <mxCell id="0" />
        <mxCell id="1" parent="0" />
        <mxCell id="pjSS5gplnJNLn9_v-o1i-1" value="" style="rounded=0;whiteSpace=wrap;html=1;" vertex="1" parent="1">
          <mxGeometry x="200" y="40" width="320" height="320" as="geometry" />
        </mxCell>
        <mxCell id="pjSS5gplnJNLn9_v-o1i-2" value="1" style="text;html=1;strokeColor=none;fillColor=none;align=center;verticalAlign=middle;whiteSpace=wrap;rounded=0;" vertex="1" parent="1">
          <mxGeometry x="160" width="40" height="40" as="geometry" />
        </mxCell>
        <mxCell id="pjSS5gplnJNLn9_v-o1i-4" value="1" style="text;html=1;strokeColor=none;fillColor=none;align=center;verticalAlign=middle;whiteSpace=wrap;rounded=0;" vertex="1" parent="1">
          <mxGeometry x="520" y="360" width="40" height="40" as="geometry" />
        </mxCell>
        <mxCell id="pjSS5gplnJNLn9_v-o1i-5" value="0" style="text;html=1;strokeColor=none;fillColor=none;align=center;verticalAlign=middle;whiteSpace=wrap;rounded=0;" vertex="1" parent="1">
          <mxGeometry x="160" y="360" width="40" height="40" as="geometry" />
        </mxCell>
        <mxCell id="pjSS5gplnJNLn9_v-o1i-6" value="Tasa de falsos positivos (FP rate)" style="text;html=1;strokeColor=none;fillColor=none;align=center;verticalAlign=middle;whiteSpace=wrap;rounded=0;" vertex="1" parent="1">
          <mxGeometry x="240" y="360" width="240" height="40" as="geometry" />
        </mxCell>
        <mxCell id="pjSS5gplnJNLn9_v-o1i-7" value="Tasa de verdaderos positivos (VP rate)" style="text;html=1;strokeColor=none;fillColor=none;align=center;verticalAlign=middle;whiteSpace=wrap;rounded=0;rotation=-90;" vertex="1" parent="1">
          <mxGeometry x="60" y="180" width="240" height="40" as="geometry" />
        </mxCell>
        <mxCell id="pjSS5gplnJNLn9_v-o1i-8" value="" style="endArrow=none;html=1;rounded=0;exitX=0;exitY=1;exitDx=0;exitDy=0;entryX=1;entryY=0;entryDx=0;entryDy=0;fillColor=#a20025;strokeColor=#6F0000;strokeWidth=8;" edge="1" parent="1" source="pjSS5gplnJNLn9_v-o1i-1" target="pjSS5gplnJNLn9_v-o1i-1">
          <mxGeometry width="50" height="50" relative="1" as="geometry">
            <mxPoint x="400" y="280" as="sourcePoint" />
            <mxPoint x="450" y="230" as="targetPoint" />
          </mxGeometry>
        </mxCell>
        <mxCell id="pjSS5gplnJNLn9_v-o1i-9" value="" style="curved=1;endArrow=none;html=1;rounded=0;exitX=1;exitY=0;exitDx=0;exitDy=0;fillColor=#d80073;strokeColor=#A50040;strokeWidth=6;endFill=0;" edge="1" parent="1" source="pjSS5gplnJNLn9_v-o1i-5">
          <mxGeometry width="50" height="50" relative="1" as="geometry">
            <mxPoint x="220" y="290" as="sourcePoint" />
            <mxPoint x="520" y="40" as="targetPoint" />
            <Array as="points">
              <mxPoint x="240" y="290" />
              <mxPoint x="330" y="130" />
            </Array>
          </mxGeometry>
        </mxCell>
        <mxCell id="pjSS5gplnJNLn9_v-o1i-10" value="" style="curved=1;endArrow=none;html=1;rounded=0;exitX=1;exitY=0;exitDx=0;exitDy=0;fillColor=#6a00ff;strokeColor=#3700CC;strokeWidth=6;endFill=0;" edge="1" parent="1">
          <mxGeometry width="50" height="50" relative="1" as="geometry">
            <mxPoint x="200" y="360" as="sourcePoint" />
            <mxPoint x="520" y="40" as="targetPoint" />
            <Array as="points">
              <mxPoint x="250" y="70" />
            </Array>
          </mxGeometry>
        </mxCell>
        <mxCell id="pjSS5gplnJNLn9_v-o1i-11" value="" style="curved=1;endArrow=none;html=1;rounded=0;exitX=1;exitY=0;exitDx=0;exitDy=0;fillColor=#008a00;strokeColor=#005700;strokeWidth=6;endFill=0;" edge="1" parent="1">
          <mxGeometry width="50" height="50" relative="1" as="geometry">
            <mxPoint x="200" y="360" as="sourcePoint" />
            <mxPoint x="520" y="40" as="targetPoint" />
            <Array as="points">
              <mxPoint x="220" y="210" />
              <mxPoint x="200" y="40" />
            </Array>
          </mxGeometry>
        </mxCell>
      </root>
    </mxGraphModel>
  </diagram>
  <diagram id="-DptEQ9DivYyP5pss8Kc" name="AU-ROC">
    <mxGraphModel dx="874" dy="472" grid="1" gridSize="10" guides="1" tooltips="1" connect="1" arrows="1" fold="1" page="1" pageScale="1" pageWidth="850" pageHeight="1100" math="0" shadow="0">
      <root>
        <mxCell id="0" />
        <mxCell id="1" parent="0" />
        <mxCell id="39RKs6VXS9gVFnUQIeSo-1" value="" style="rounded=0;whiteSpace=wrap;html=1;" vertex="1" parent="1">
          <mxGeometry x="200" y="40" width="320" height="320" as="geometry" />
        </mxCell>
        <mxCell id="39RKs6VXS9gVFnUQIeSo-2" value="1" style="text;html=1;strokeColor=none;fillColor=none;align=center;verticalAlign=middle;whiteSpace=wrap;rounded=0;" vertex="1" parent="1">
          <mxGeometry x="160" width="40" height="40" as="geometry" />
        </mxCell>
        <mxCell id="39RKs6VXS9gVFnUQIeSo-3" value="1" style="text;html=1;strokeColor=none;fillColor=none;align=center;verticalAlign=middle;whiteSpace=wrap;rounded=0;" vertex="1" parent="1">
          <mxGeometry x="520" y="360" width="40" height="40" as="geometry" />
        </mxCell>
        <mxCell id="39RKs6VXS9gVFnUQIeSo-4" value="0" style="text;html=1;strokeColor=none;fillColor=none;align=center;verticalAlign=middle;whiteSpace=wrap;rounded=0;" vertex="1" parent="1">
          <mxGeometry x="160" y="360" width="40" height="40" as="geometry" />
        </mxCell>
        <mxCell id="39RKs6VXS9gVFnUQIeSo-5" value="Tasa de falsos positivos (FP rate)" style="text;html=1;strokeColor=none;fillColor=none;align=center;verticalAlign=middle;whiteSpace=wrap;rounded=0;" vertex="1" parent="1">
          <mxGeometry x="240" y="360" width="240" height="40" as="geometry" />
        </mxCell>
        <mxCell id="39RKs6VXS9gVFnUQIeSo-6" value="Tasa de verdaderos positivos (VP rate)" style="text;html=1;strokeColor=none;fillColor=none;align=center;verticalAlign=middle;whiteSpace=wrap;rounded=0;rotation=-90;" vertex="1" parent="1">
          <mxGeometry x="60" y="180" width="240" height="40" as="geometry" />
        </mxCell>
        <mxCell id="39RKs6VXS9gVFnUQIeSo-7" value="" style="endArrow=none;html=1;rounded=0;exitX=0;exitY=1;exitDx=0;exitDy=0;entryX=1;entryY=0;entryDx=0;entryDy=0;fillColor=#A20025;strokeColor=#6F0000;strokeWidth=8;" edge="1" parent="1" source="39RKs6VXS9gVFnUQIeSo-1" target="39RKs6VXS9gVFnUQIeSo-1">
          <mxGeometry width="50" height="50" relative="1" as="geometry">
            <mxPoint x="400" y="280" as="sourcePoint" />
            <mxPoint x="450" y="230" as="targetPoint" />
          </mxGeometry>
        </mxCell>
        <mxCell id="39RKs6VXS9gVFnUQIeSo-8" value="" style="curved=1;endArrow=none;html=1;rounded=0;exitX=1;exitY=0;exitDx=0;exitDy=0;fillColor=#d80073;strokeColor=#A50040;strokeWidth=6;endFill=0;" edge="1" parent="1" source="39RKs6VXS9gVFnUQIeSo-4">
          <mxGeometry width="50" height="50" relative="1" as="geometry">
            <mxPoint x="220" y="290" as="sourcePoint" />
            <mxPoint x="520" y="40" as="targetPoint" />
            <Array as="points">
              <mxPoint x="240" y="290" />
              <mxPoint x="330" y="130" />
            </Array>
          </mxGeometry>
        </mxCell>
        <mxCell id="39RKs6VXS9gVFnUQIeSo-9" value="" style="curved=1;endArrow=none;html=1;rounded=0;exitX=1;exitY=0;exitDx=0;exitDy=0;fillColor=#6a00ff;strokeColor=#3700CC;strokeWidth=6;endFill=0;" edge="1" parent="1">
          <mxGeometry width="50" height="50" relative="1" as="geometry">
            <mxPoint x="200" y="360" as="sourcePoint" />
            <mxPoint x="520" y="40" as="targetPoint" />
            <Array as="points">
              <mxPoint x="250" y="70" />
            </Array>
          </mxGeometry>
        </mxCell>
        <mxCell id="39RKs6VXS9gVFnUQIeSo-10" value="" style="curved=1;endArrow=none;html=1;rounded=0;exitX=1;exitY=0;exitDx=0;exitDy=0;fillColor=#008a00;strokeColor=#005700;strokeWidth=6;endFill=0;" edge="1" parent="1">
          <mxGeometry width="50" height="50" relative="1" as="geometry">
            <mxPoint x="200" y="360" as="sourcePoint" />
            <mxPoint x="520" y="40" as="targetPoint" />
            <Array as="points">
              <mxPoint x="220" y="210" />
              <mxPoint x="200" y="40" />
            </Array>
          </mxGeometry>
        </mxCell>
        <mxCell id="39RKs6VXS9gVFnUQIeSo-12" value="0.5" style="text;html=1;strokeColor=#6F0000;fillColor=#a20025;align=center;verticalAlign=middle;whiteSpace=wrap;rounded=0;fontColor=#ffffff;" vertex="1" parent="1">
          <mxGeometry x="560" y="160" width="80" height="40" as="geometry" />
        </mxCell>
        <mxCell id="39RKs6VXS9gVFnUQIeSo-13" value="&lt;div&gt;0.6&lt;/div&gt;" style="text;html=1;strokeColor=#A50040;fillColor=#d80073;align=center;verticalAlign=middle;whiteSpace=wrap;rounded=0;fontColor=#ffffff;" vertex="1" parent="1">
          <mxGeometry x="560" y="120" width="80" height="40" as="geometry" />
        </mxCell>
        <mxCell id="39RKs6VXS9gVFnUQIeSo-14" value="0.9" style="text;html=1;strokeColor=#005700;fillColor=#008a00;align=center;verticalAlign=middle;whiteSpace=wrap;rounded=0;fontColor=#ffffff;" vertex="1" parent="1">
          <mxGeometry x="560" y="80" width="80" height="40" as="geometry" />
        </mxCell>
      </root>
    </mxGraphModel>
  </diagram>
  <diagram id="js6vc0v2LFbPE19Uy5fV" name="PRC">
    <mxGraphModel dx="874" dy="472" grid="1" gridSize="10" guides="1" tooltips="1" connect="1" arrows="1" fold="1" page="1" pageScale="1" pageWidth="850" pageHeight="1100" math="0" shadow="0">
      <root>
        <mxCell id="0" />
        <mxCell id="1" parent="0" />
        <mxCell id="jN46EJZy0c34RfyCagZr-1" value="" style="rounded=0;whiteSpace=wrap;html=1;" vertex="1" parent="1">
          <mxGeometry x="200" y="40" width="320" height="320" as="geometry" />
        </mxCell>
        <mxCell id="jN46EJZy0c34RfyCagZr-2" value="1" style="text;html=1;strokeColor=none;fillColor=none;align=center;verticalAlign=middle;whiteSpace=wrap;rounded=0;" vertex="1" parent="1">
          <mxGeometry x="160" width="40" height="40" as="geometry" />
        </mxCell>
        <mxCell id="jN46EJZy0c34RfyCagZr-3" value="1" style="text;html=1;strokeColor=none;fillColor=none;align=center;verticalAlign=middle;whiteSpace=wrap;rounded=0;" vertex="1" parent="1">
          <mxGeometry x="520" y="360" width="40" height="40" as="geometry" />
        </mxCell>
        <mxCell id="jN46EJZy0c34RfyCagZr-4" value="0" style="text;html=1;strokeColor=none;fillColor=none;align=center;verticalAlign=middle;whiteSpace=wrap;rounded=0;" vertex="1" parent="1">
          <mxGeometry x="160" y="360" width="40" height="40" as="geometry" />
        </mxCell>
        <mxCell id="jN46EJZy0c34RfyCagZr-5" value="Recall" style="text;html=1;strokeColor=none;fillColor=none;align=center;verticalAlign=middle;whiteSpace=wrap;rounded=0;" vertex="1" parent="1">
          <mxGeometry x="240" y="360" width="240" height="40" as="geometry" />
        </mxCell>
        <mxCell id="jN46EJZy0c34RfyCagZr-6" value="&lt;div&gt;Precision&lt;/div&gt;" style="text;html=1;strokeColor=none;fillColor=none;align=center;verticalAlign=middle;whiteSpace=wrap;rounded=0;rotation=-90;" vertex="1" parent="1">
          <mxGeometry x="60" y="180" width="240" height="40" as="geometry" />
        </mxCell>
        <mxCell id="jN46EJZy0c34RfyCagZr-11" value="" style="curved=1;endArrow=none;html=1;rounded=0;endFill=0;entryX=1;entryY=1;entryDx=0;entryDy=0;exitX=0;exitY=0;exitDx=0;exitDy=0;strokeWidth=5;fillColor=#a20025;strokeColor=#6F0000;" edge="1" parent="1" source="jN46EJZy0c34RfyCagZr-3" target="jN46EJZy0c34RfyCagZr-2">
          <mxGeometry width="50" height="50" relative="1" as="geometry">
            <mxPoint x="630" y="250" as="sourcePoint" />
            <mxPoint x="680" y="200" as="targetPoint" />
            <Array as="points">
              <mxPoint x="430" y="150" />
            </Array>
          </mxGeometry>
        </mxCell>
        <mxCell id="jN46EJZy0c34RfyCagZr-12" value="" style="curved=1;endArrow=none;html=1;rounded=0;endFill=0;entryX=0.25;entryY=0;entryDx=0;entryDy=0;exitX=1;exitY=0.75;exitDx=0;exitDy=0;strokeWidth=5;fillColor=#008a00;strokeColor=#005700;" edge="1" parent="1" source="jN46EJZy0c34RfyCagZr-1" target="jN46EJZy0c34RfyCagZr-1">
          <mxGeometry width="50" height="50" relative="1" as="geometry">
            <mxPoint x="585" y="320" as="sourcePoint" />
            <mxPoint x="265" as="targetPoint" />
            <Array as="points">
              <mxPoint x="440" y="120" />
            </Array>
          </mxGeometry>
        </mxCell>
      </root>
    </mxGraphModel>
  </diagram>
  <diagram id="smagZfaAjdu6RlDd1wXQ" name="AU-PR">
    <mxGraphModel dx="874" dy="472" grid="1" gridSize="10" guides="1" tooltips="1" connect="1" arrows="1" fold="1" page="1" pageScale="1" pageWidth="850" pageHeight="1100" math="0" shadow="0">
      <root>
        <mxCell id="0" />
        <mxCell id="1" parent="0" />
        <mxCell id="Vv6OKa3GhzhlAdJ9_MC2-1" value="" style="rounded=0;whiteSpace=wrap;html=1;" vertex="1" parent="1">
          <mxGeometry x="200" y="40" width="320" height="320" as="geometry" />
        </mxCell>
        <mxCell id="Vv6OKa3GhzhlAdJ9_MC2-2" value="1" style="text;html=1;strokeColor=none;fillColor=none;align=center;verticalAlign=middle;whiteSpace=wrap;rounded=0;" vertex="1" parent="1">
          <mxGeometry x="160" width="40" height="40" as="geometry" />
        </mxCell>
        <mxCell id="Vv6OKa3GhzhlAdJ9_MC2-3" value="1" style="text;html=1;strokeColor=none;fillColor=none;align=center;verticalAlign=middle;whiteSpace=wrap;rounded=0;" vertex="1" parent="1">
          <mxGeometry x="520" y="360" width="40" height="40" as="geometry" />
        </mxCell>
        <mxCell id="Vv6OKa3GhzhlAdJ9_MC2-4" value="0" style="text;html=1;strokeColor=none;fillColor=none;align=center;verticalAlign=middle;whiteSpace=wrap;rounded=0;" vertex="1" parent="1">
          <mxGeometry x="160" y="360" width="40" height="40" as="geometry" />
        </mxCell>
        <mxCell id="Vv6OKa3GhzhlAdJ9_MC2-5" value="Recall" style="text;html=1;strokeColor=none;fillColor=none;align=center;verticalAlign=middle;whiteSpace=wrap;rounded=0;" vertex="1" parent="1">
          <mxGeometry x="240" y="360" width="240" height="40" as="geometry" />
        </mxCell>
        <mxCell id="Vv6OKa3GhzhlAdJ9_MC2-6" value="&lt;div&gt;Precision&lt;/div&gt;" style="text;html=1;strokeColor=none;fillColor=none;align=center;verticalAlign=middle;whiteSpace=wrap;rounded=0;rotation=-90;" vertex="1" parent="1">
          <mxGeometry x="60" y="180" width="240" height="40" as="geometry" />
        </mxCell>
        <mxCell id="Vv6OKa3GhzhlAdJ9_MC2-7" value="" style="curved=1;endArrow=none;html=1;rounded=0;endFill=0;entryX=1;entryY=1;entryDx=0;entryDy=0;exitX=0;exitY=0;exitDx=0;exitDy=0;strokeWidth=5;fillColor=#a20025;strokeColor=#6F0000;" edge="1" parent="1" source="Vv6OKa3GhzhlAdJ9_MC2-3" target="Vv6OKa3GhzhlAdJ9_MC2-2">
          <mxGeometry width="50" height="50" relative="1" as="geometry">
            <mxPoint x="630" y="250" as="sourcePoint" />
            <mxPoint x="680" y="200" as="targetPoint" />
            <Array as="points">
              <mxPoint x="430" y="150" />
            </Array>
          </mxGeometry>
        </mxCell>
        <mxCell id="Vv6OKa3GhzhlAdJ9_MC2-8" value="" style="curved=1;endArrow=none;html=1;rounded=0;endFill=0;entryX=0.25;entryY=0;entryDx=0;entryDy=0;exitX=1;exitY=0.75;exitDx=0;exitDy=0;strokeWidth=5;fillColor=#008a00;strokeColor=#005700;" edge="1" parent="1" source="Vv6OKa3GhzhlAdJ9_MC2-1" target="Vv6OKa3GhzhlAdJ9_MC2-1">
          <mxGeometry width="50" height="50" relative="1" as="geometry">
            <mxPoint x="585" y="320" as="sourcePoint" />
            <mxPoint x="265" as="targetPoint" />
            <Array as="points">
              <mxPoint x="440" y="120" />
            </Array>
          </mxGeometry>
        </mxCell>
      </root>
    </mxGraphModel>
  </diagram>
</mxfile>
